# xmcd
#
# Track frame offsets: 
#        150
#        14535
#        29025
#        41980
#        58630
#        68517
#        81507
#        93877
#        110280
#        127210
#        139067
#        151597
#        164335
#        176627
#        188832
#        201725
#
# Disc length: 2852 seconds
#
# Revision: 0
# Processed by: cddbd v1.5PL3 Copyright (c) Steve Scherf et al.
# Submitted via: ExactAudioCopy v0.90b4
#
DISCID=e60b2210
DTITLE=Merle Haggard - This Is Merle Haggard
DYEAR=1900
DGENRE=Country
TTITLE0=Branded Man
TTITLE1=I'm A Lonesome Fugitive
TTITLE2=Sing Me Back Home
TTITLE3=Daddy Frank
TTITLE4=Mama Tried
TTITLE5=Swinging Doors
TTITLE6=The Bottle Let Me Down
TTITLE7=Hungry Eyes
TTITLE8=Today I Started Loving You Again
TTITLE9=Carolyn
TTITLE10=If We Make It Through December
TTITLE11=Silver Wings
TTITLE12=I Take A Lot Of Pride In What I Am
TTITLE13=Okie From Muskogee
TTITLE14=The Fightin' Side Of Me
TTITLE15=Workin' Man Blues
EXTD=
EXTT0=
EXTT1=
EXTT2=
EXTT3=
EXTT4=
EXTT5=
EXTT6=
EXTT7=
EXTT8=
EXTT9=
EXTT10=
EXTT11=
EXTT12=
EXTT13=
EXTT14=
EXTT15=
PLAYORDER=
